<?xml version="1.0" encoding="utf-8"?>
<!-- Generator: Adobe Illustrator 15.0.0, SVG Export Plug-In . SVG Version: 6.00 Build 0)  -->
<!DOCTYPE svg PUBLIC "-//W3C//DTD SVG 1.1//EN" "http://www.w3.org/Graphics/SVG/1.1/DTD/svg11.dtd">
<svg version="1.1" id="Layer_1" xmlns="http://www.w3.org/2000/svg" xmlns:xlink="http://www.w3.org/1999/xlink" x="0px" y="0px"
	 width="1024px" height="768px" viewBox="0 0 1024 768" enable-background="new 0 0 1024 768" xml:space="preserve">
<g>
	<path fill="#F08529" d="M512,351.787c-12.922,0-24.049,7.561-29.286,18.482c0.014,0.017,0.029,0.024,0.042,0.046
		c-0.054-0.004-0.063,0.008-0.075,0.021c-0.003,0.008-0.008,0.019-0.011,0.023c0.02,0.068,0.177,0.201,0.051,0.322
		c-0.061-0.021-0.117-0.042-0.176-0.062c-1.523,3.278-2.538,6.839-2.887,10.6c0.415,0.121,0.718,0.487,0.267,0.647
		c0.046-0.196-0.104-0.233-0.29-0.245c-0.07,0.879-0.134,1.763-0.134,2.662c0,7.392,2.496,14.184,6.653,19.648
		c0.007-0.029,0-0.055,0.01-0.08c0.396,0.346,0.381,0.195,1.063,0.571c-0.096,0.241-0.334,0.27-0.562,0.188
		c5.957,7.416,15.084,12.172,25.334,12.172c17.949,0,32.499-14.552,32.499-32.499C544.499,366.338,529.949,351.787,512,351.787z
		 M483.241,370.008c-0.185,0.153,0.108,0.399-0.121,0.339c0.02-0.047,0.026-0.104-0.05-0.112c-0.045,0.06-0.061,0.17-0.146,0.142
		C482.835,370.201,482.969,369.852,483.241,370.008z M483.053,379.221c0,0.298-0.105,0.219-0.062,0.46
		c-0.33-0.162-0.504,0.19-0.593-0.206C482.597,379.361,482.778,379.199,483.053,379.221z M482.876,394.801
		c-1.095-0.412-0.034-0.772-0.355-1.77c0.66,0.21,0.461-0.127,1.31,0.002C483.796,393.806,483.286,394.272,482.876,394.801z
		 M486.107,402.785c0.168,0.016,0.25-0.122,0.44-0.064c0.257,0.201-0.054,0.205-0.254,0.127c0.137,0.172,0.378,1.315,0.688,0.449
		C487.281,404.267,485.567,403.865,486.107,402.785z M487.925,388.211c-0.342,0.238-0.603,0.052-0.916,0.112
		c-0.132-0.323,0.016-0.594,0.085-0.878c0.213-0.052,0.4-0.014,0.606-0.072C488.053,387.712,487.892,387.941,487.925,388.211z
		 M486.961,380.487c0.298-0.476,1.364-0.659,1.361,0.247C488.025,381.213,486.961,381.394,486.961,380.487z M530.732,359.887
		c0.267,0.105,0.424,0.532-0.08,0.6C530.402,360.15,530.863,360.168,530.732,359.887z M530.685,373.181
		c0.175,0.404,0.179,0.799,0.353,1.212c-0.574,0.823-1.097,0.571-1.634,0.733c-0.595-0.627-0.309-1.215-0.524-1.828
		C529.495,372.929,530.092,373.13,530.685,373.181z M526.207,365.341c-0.093,0.4-0.262,0.046-0.591,0.202
		c0.035-0.238-0.069-0.151-0.063-0.445C525.823,365.073,526.004,365.225,526.207,365.341z M514.876,403.969
		c0.087,0.191,0.3,0.201,0.354,0.45c-0.058,0.416-0.264,0.071-0.305-0.193c-0.104,0.265-1.229,1.278-0.049,1.058
		C513.976,406.243,513.312,404.076,514.876,403.969z M505.848,362.464c0.526,0.35,0.65,1.345-0.457,1.231
		C505.021,362.867,505.997,363.119,505.848,362.464z M492.258,371.031c0.584,0.085,0.904,0.504,1.279,0.857
		c-0.388,0.797-0.588-0.033-1.371,0.138C492.369,371.542,492.102,371.671,492.258,371.031z M492.161,386.419
		c0.29,0.053,0.598,0.543,0.144,0.731C492.017,387.094,491.709,386.602,492.161,386.419z M493.35,399.038
		c-0.587,0.072-0.794-0.328-1.231-0.459c0.054-0.5,0.403-0.747,0.679-1.059c0.302,0.067,0.521,0.24,0.825,0.304
		C493.848,398.482,493.489,398.672,493.35,399.038z M493.353,366.707c-0.137-0.269,0.12-0.303,0.329-0.373
		c-0.037-0.135-0.072-0.264-0.106-0.397c0.277-0.267,0.551,0.415,0.562-0.007C494.771,366.352,493.756,367.131,493.353,366.707z
		 M494.061,365.664c-0.025-0.133,0.146-0.147,0.238-0.202c-0.008-0.119-0.086-0.113-0.173-0.097
		c-0.053-0.353,0.28,0.121,0.531-0.145C494.879,365.652,494.317,365.818,494.061,365.664z M496.859,369.745
		c-0.047,0.358,0.028,0.287,0.075,0.83C496.521,370.662,496.47,369.83,496.859,369.745z M497.453,369.301
		c0.051,0.098,0.165,0.098,0.203,0.231c-0.015,0.22-0.137,0.044-0.171-0.097c-0.052,0.143-0.613,0.715,0.006,0.56
		C497.05,370.542,496.622,369.402,497.453,369.301z M498.136,386.04c-0.584-0.334-0.432-1.038-0.743-1.505
		c0.479-0.429,0.756,0.545,1.498,0.502c-0.1,0.209-0.069,0.354,0.063,0.443C498.847,385.991,498.177,385.38,498.136,386.04z
		 M500.625,361.642c-0.28-0.167-0.44-0.483-0.839-0.498c0.013-0.23,0.184-0.136,0.195-0.023c0.566,0.097,0.474-0.332,0.953-0.303
		C501.135,361.339,500.582,361.249,500.625,361.642z M501.162,404.741c-0.459-0.456,0.483-0.687,0.948-0.308
		C502.163,405.276,501.274,404.224,501.162,404.741z M502.093,378.706c0.088-0.445,0.571,0.012,0.54,0.421
		C502.166,379.482,502.433,378.571,502.093,378.706z M504.807,387.449c0.076,0.107,0.196-0.004,0.302-0.032
		c0.357,0.233,0.605,0.611,0.679,1.025C505.172,389.653,503.423,388.168,504.807,387.449z M505.603,376.708
		c0.124-0.717,1.555-1.027,1.41,0.244C506.476,377.265,506.006,377.102,505.603,376.708z M508.141,397.976
		c-0.049-0.255-0.1-0.507-0.145-0.759c0.562-0.466,0.989,0.838,1.057,0.05c1.146,0.872-0.854,2.206-1.562,1.366
		C507.266,398.117,507.755,398.079,508.141,397.976z M509.931,413.318c-1.572,1.13-2.836-1.9-0.602-1.914
		c0.023,0.193,0.254,0.132,0.413,0.154C510.04,412.087,510.106,412.74,509.931,413.318z M508.947,396.761
		c-0.043-0.248,0.272-0.26,0.455-0.356c0.01-0.226-0.143-0.218-0.302-0.199c-0.069-0.663,0.508,0.26,1.01-0.207
		C510.462,396.84,509.405,397.088,508.947,396.761z M510.91,405.91c-0.34-0.262-0.41-1.087,0.285-1.021
		C511.535,405.148,511.598,405.971,510.91,405.91z M512.319,370.057c-0.34,0.137-0.241-0.479-0.639-0.248
		c-0.028-0.471,0.436-0.653,0.581-1.013c0.432,0.111-0.019,0.647,0.289,1.056C512.389,369.88,512.319,369.949,512.319,370.057z
		 M513.716,404.725c-0.128,0.674,0.019,0.559,0.053,1.568C512.973,406.413,512.973,404.85,513.716,404.725z M513.884,408.489
		c0.196-0.01,0.155-0.241,0.2-0.397c0.564-0.24,1.228-0.233,1.786,0.014C516.825,409.811,513.636,410.734,513.884,408.489z
		 M517.031,392.885c-0.601-0.188-0.051-0.419-0.254-0.934c0.362,0.089,0.241-0.084,0.703-0.048
		C517.484,392.32,517.229,392.584,517.031,392.885z M520.118,410.162c0.206-0.488-0.063-0.363,0.091-0.998
		c0.592,0.082,0.907,0.498,1.278,0.854C521.101,410.822,520.907,409.987,520.118,410.162z M524.452,370.024
		c0.958,0.076,1.52,1.903-0.149,1.865C523.83,371.229,523.978,370.596,524.452,370.024z M524.816,390.352
		c-0.196,0.019-0.181-0.213-0.241-0.358c-0.171-0.023-0.178,0.089-0.174,0.211c-0.508,0.008,0.231-0.36-0.086-0.785
		C524.976,389.212,525.096,390.035,524.816,390.352z M525.683,391.053c-0.199,0.024-0.39,0.045-0.59,0.063
		c-0.308-0.458,0.705-0.696,0.114-0.802c0.738-0.808,1.612,0.807,0.927,1.287C525.722,391.731,525.73,391.36,525.683,391.053z
		 M527.029,406.544c-2.653-0.854-0.223-4.905,1.697-2.327c-0.193,0.188,0.073,0.4,0.175,0.605
		C528.552,405.619,527.851,406.27,527.029,406.544z M528.305,377.38c-0.022-0.227,0.104-0.374,0.193-0.543
		c0.14,0.011,0.261,0.054,0.397,0.054c0.171,0.271,0.034,0.39,0.006,0.568C528.644,377.553,528.508,377.398,528.305,377.38z
		 M528.917,397.667c0.388-0.363,0.093-0.358,0.502-0.878c0.511,0.327,0.619,0.849,0.812,1.324
		C529.531,398.686,529.711,397.84,528.917,397.667z M530.704,386.371c0.151-0.061,0.175-0.219,0.368-0.241
		c0.314,0.069,0.038,0.205-0.175,0.213c0.194,0.102,0.889,1.027,0.805,0.114C532.37,387.217,530.666,387.564,530.704,386.371z
		 M531.196,387.303c0.498,0.143,0.425,0.017,1.196,0.068C532.428,387.988,531.24,387.871,531.196,387.303z M532.074,366.257
		c-0.016-0.333,0.592-0.614,0.655-0.035C532.522,366.418,532.301,366.394,532.074,366.257z M542.555,379.476
		c-0.087,0.396-0.264,0.044-0.593,0.206c0.041-0.241-0.063-0.162-0.063-0.46C542.177,379.199,542.354,379.361,542.555,379.476z
		 M537.448,378.238c0.175,0.082,0.292,0.44-0.026,0.485C537.245,378.647,537.138,378.29,537.448,378.238z M537.28,381.335
		c0.031,0.086,0.133,0.027,0.205,0.024c0.186,0.207,0.28,0.489,0.258,0.766C537.166,382.79,536.287,381.564,537.28,381.335z
		 M537.877,400.799c-0.003,0.619-0.908,1.396-1.422,0.543C536.458,400.724,537.362,399.942,537.877,400.799z M534.538,366.341
		c-0.666-0.06-0.816-0.75-1.295-1.044c0.261-0.58,0.908,0.186,1.562-0.164c-0.003,0.228,0.085,0.337,0.238,0.367
		C535.153,366.007,534.304,365.728,534.538,366.341z"/>
	<path fill="#FFFFFF" d="M520.164,384.095h-5.341c0,7.996,0,17.984,0,17.984h-5.995c0,0,0-9.988,0-17.984h-3.996V378.1h3.996v-3.785
		c0-2.894,0.948-7.403,6.985-7.403l5.005,0.019v5.173c0,0-3.407,0-4.051,0s-1.944,1.208-1.944,2.581v3.416h5.985L520.164,384.095z"
		/>
</g>
</svg>
