<?xml version="1.0" encoding="utf-8"?>
<!-- Generator: Adobe Illustrator 15.0.0, SVG Export Plug-In . SVG Version: 6.00 Build 0)  -->
<!DOCTYPE svg PUBLIC "-//W3C//DTD SVG 1.1//EN" "http://www.w3.org/Graphics/SVG/1.1/DTD/svg11.dtd">
<svg version="1.1" id="Layer_1" xmlns="http://www.w3.org/2000/svg" xmlns:xlink="http://www.w3.org/1999/xlink" x="0px" y="0px"
	 width="1024px" height="768px" viewBox="0 0 1024 768" enable-background="new 0 0 1024 768" xml:space="preserve">
<g>
	<g>
		<path fill="#F15E3B" d="M534.506,400.086l-2.508,0.424l-0.156-0.027c-0.037,0.17-0.084,0.368,0.029,0.559
			c-0.141,0.003-0.207,0.062-0.221,0.16c-0.311,0.084-0.168-0.451-0.535-0.287c0.008-0.234,0.15-0.374,0.301-0.507l-1.793-0.316
			l-2.371,0.296l-2.371,0.111l-2.369,0.048l-2.369-0.421l-2.113,0.078c0,0.018,0,0.025,0,0.045
			c-0.061,0.006-0.107-0.012-0.146-0.039l-0.105,0.004l-2.369,0.295l-2.369,0.087l-2.368-0.749l-2.369-0.039l-2.366,0.793
			l-2.368-0.039l-1.347-0.266c0.035,0.092,0.005,0.208-0.162,0.18c-0.041-0.08-0.022-0.146,0.016-0.209l-0.872-0.172l-2.368-0.164
			l-2.365,0.51l-2.364-0.281l-2.365-0.188l-2.254,0.324l-0.167,2.699l0.156,2.795l0.075,2.641l2.199,0.34l2.375-0.299l2.371,0.537
			l2.371-0.035l2.369,0.029l2.369-0.396l2.364,0.383l2.37-0.539l2.369,0.029l2.368,0.146l2.369,0.275l2.367-0.268l2.367,0.369
			l2.365-0.34l2.369-0.178l2.363-0.323l2.365,0.175l2.365-0.034l2.6,0.476l-0.266-2.992l0.447-2.795L534.506,400.086z
			 M491.998,402.393c0.089-0.402,0.395-0.441,0.577-0.689c0.304,0.143,0.386,0.426,0.525,0.674
			c-0.115,0.178-0.268,0.283-0.387,0.457C492.242,402.832,492.199,402.561,491.998,402.393z M492.959,404.953
			c-0.024-0.082,0.052-0.076,0.115-0.084c0-0.041-0.005-0.08-0.007-0.123c0.096-0.055,0.131,0.152,0.157,0.035
			C493.381,404.937,493.049,405.1,492.959,404.953z M493.224,404.701c-0.002-0.037,0.046-0.031,0.078-0.045
			c0-0.035-0.021-0.037-0.045-0.037c0.004-0.104,0.074,0.053,0.158-0.009C493.45,404.748,493.285,404.761,493.224,404.701z
			 M493.741,406.258c-0.124,0.004-0.09-0.237,0.028-0.239C493.735,406.117,493.761,406.104,493.741,406.258z M493.967,405.971
			c-0.026,0.041-0.219,0.168-0.034,0.158c-0.157,0.127-0.211-0.217,0.029-0.201c0.009,0.033,0.041,0.039,0.044,0.082
			C493.99,406.068,493.967,406.014,493.967,405.971z M494.492,404.75c-0.508-0.215,0.001-0.363-0.134-0.842
			c0.309,0.107,0.222-0.054,0.621,0.025C494.944,404.297,494.694,404.506,494.492,404.75z M495.056,400.65
			c-0.107,0.053-0.238,0.064-0.355,0.016c-0.208-0.328,0.417-0.547,0.396-0.098C495.057,400.572,495.066,400.619,495.056,400.65z
			 M495.242,403.033c-0.158-0.088,0.011-0.119-0.016-0.279c0.101,0.049,0.076-0.01,0.2,0.027
			C495.402,402.902,495.318,402.961,495.242,403.033z M496.115,401.262c-0.057-0.113-0.018-0.203,0.064-0.281
			c0.006,0.001,0.008,0.007,0.013,0.009c-0.003-0.015-0.011-0.024-0.008-0.044c0.057-0.066,0.222-0.068,0.202,0.07
			c-0.025,0.029-0.072,0.043-0.115,0.041C496.325,401.151,496.297,401.293,496.115,401.262z M498.196,406.986
			c-0.047-0.002-0.072,0.016-0.078,0.045c-0.103,0.018-0.036-0.15-0.164-0.109c0.019-0.133,0.16-0.158,0.227-0.252
			C498.294,406.728,498.134,406.852,498.196,406.986z M498.805,401.078c0.169-0.064,0.108,0.127,0.241,0.105
			C498.97,401.285,498.77,401.303,498.805,401.078z M498.901,404.168c-0.024-0.086,0.054-0.08,0.115-0.084
			c-0.003-0.041-0.005-0.08-0.007-0.119c0.094-0.057,0.133,0.146,0.161,0.031C499.324,404.152,498.99,404.311,498.901,404.168z
			 M499.167,403.912c0-0.037,0.045-0.029,0.075-0.039c0.007-0.037-0.018-0.039-0.044-0.039c0.008-0.104,0.074,0.053,0.162-0.008
			C499.394,403.963,499.229,403.973,499.167,403.912z M499.27,400.141c0.034-0.057,0.102-0.084,0.108-0.164
			c0.047,0.004,0.026,0.041,0.004,0.041c-0.027,0.111,0.06,0.096,0.048,0.195C499.326,400.248,499.348,400.137,499.27,400.141z
			 M499.686,405.475c-0.127,0-0.092-0.238,0.026-0.24C499.677,405.33,499.702,405.32,499.686,405.475z M499.906,405.184
			c-0.021,0.041-0.216,0.168-0.029,0.16c-0.157,0.127-0.215-0.219,0.028-0.2c0.008,0.033,0.04,0.038,0.045,0.079
			C499.93,405.281,499.909,405.225,499.906,405.184z M500.748,407.299l-0.654,0.521c-0.097-0.244,0.137-0.257,0.322-0.297
			c-0.021-0.119-0.036-0.238-0.057-0.359C500.528,407.038,500.659,407.223,500.748,407.299l0.112-0.09
			C500.841,407.353,500.803,407.347,500.748,407.299z M500.818,406.969c-0.013-0.117,0.135-0.116,0.226-0.158
			c-0.002-0.105-0.065-0.104-0.139-0.1c-0.023-0.315,0.229,0.129,0.479-0.078C501.532,407.037,501.03,407.131,500.818,406.969z
			 M504.138,406.201c-0.046-0.004-0.069,0.014-0.075,0.043c-0.104,0.02-0.039-0.146-0.164-0.107c0.014-0.137,0.159-0.159,0.224-0.25
			C504.236,405.943,504.076,406.066,504.138,406.201z M503.834,406.07c-0.147-0.061-0.238-0.027-0.291,0.066
			c-0.352-0.043,0.018-0.529-0.429-0.516c0.192-0.412,0.67-0.355,0.965-0.592C504.397,405.322,503.762,405.572,503.834,406.07z
			 M506.035,407.037c-0.096-0.246,0.135-0.258,0.323-0.297c-0.018-0.117-0.037-0.24-0.058-0.363
			c0.276-0.203,0.453,0.414,0.501,0.045C507.326,406.854,506.354,407.449,506.035,407.037z M506.762,406.182
			c-0.016-0.115,0.13-0.115,0.222-0.156c0.006-0.109-0.065-0.107-0.14-0.102c-0.018-0.313,0.232,0.133,0.48-0.076
			C507.474,406.252,506.972,406.344,506.762,406.182z M514.391,403.244c-0.318,0.201-0.721,0.268-1.08,0.174
			c-0.75-0.938,1.086-1.815,1.16-0.434C514.354,403.008,514.402,403.146,514.391,403.244z M517.924,403.789
			c0.152-0.221,0.658-0.283,0.643,0.146C518.416,404.152,517.908,404.219,517.924,403.789z M522.275,408.324
			c-0.443,0.268-0.123-0.514-0.438-0.429C521.953,407.518,522.346,407.965,522.275,408.324z M523.424,402.344
			c-1.25,0.244-1.166-1.916,0.172-1.3c-0.039,0.116,0.115,0.142,0.203,0.204C523.834,401.644,523.693,402.053,523.424,402.344z
			 M528.053,406.818c0.061,0.104,0.176,0.014,0.273-0.005c0.293,0.237,0.479,0.599,0.502,0.97
			C528.178,408.789,526.768,407.324,528.053,406.818z M530.391,403.285c0.256-0.238,0.061-0.234,0.33-0.574
			c0.33,0.213,0.4,0.553,0.527,0.861C530.797,403.943,530.908,403.398,530.391,403.285z"/>
		<path fill="#F15E3B" d="M534.422,381.848l-2.424-0.313l-2.375,0.41l-2.371-0.192l-2.371,0.14l-2.369,0.412l-0.232-0.043
			c0.025,0.076,0.002,0.163-0.143,0.308c-0.256-0.133-0.529-0.238-0.723-0.469l-1.271-0.236l-2.365-0.137l-2.369,0.219l-2.369-0.297
			l-2.368,0.532l-2.369-0.406l-2.366,0.147l-2.368-0.448l-2.365,0.243l-2.368,0.483l-2.365-0.419l-2.364,0.297l-2.365,0.112
			l-2.102-0.076l-0.338,2.571l0.086,2.797l0.223,2.59l2.141-0.194l2.375,0.749l2.371,0.039l1.947-0.652c0-0.003,0-0.006,0-0.008
			c0.01-0.002,0.016,0.001,0.024,0l0.399-0.135l2.369,0.041l2.369,0.467l2.364,0.164l2.37-0.511l2.369,0.28l2.368,0.188l2.369-0.375
			l2.367,0.201l2.367-0.155l2.365-0.131l1.252,0.223c0.1-0.154,0.258-0.267,0.256-0.495c0.139,0,0.086,0.114,0.018,0.122
			c-0.037,0.288,0.123,0.304,0.186,0.455l0.658,0.117l2.363-0.299l2.365,0.537l2.365-0.035l2.688-0.12l-0.076-3.083l0.156-2.781
			L534.422,381.848z M495.21,387.9c-0.398,0.163-0.527-0.051-0.758-0.125c-0.064-0.365,0.179-0.508,0.245-0.777
			c0.307,0.014,0.472,0.223,0.678,0.385C495.34,387.57,495.242,387.713,495.21,387.9z M501.153,387.113
			c-0.4,0.164-0.526-0.052-0.758-0.123c-0.064-0.363,0.178-0.508,0.243-0.779c0.309,0.017,0.476,0.226,0.68,0.383
			C501.281,386.785,501.187,386.932,501.153,387.113z M502.578,385.537c-0.077-0.414,0.133-0.676,0.479-0.849
			C503.494,384.936,503.36,385.922,502.578,385.537z M503.55,382.33c-0.155-0.089,0.013-0.121-0.015-0.279
			c0.097,0.046,0.075-0.01,0.201,0.031C503.715,382.199,503.625,382.255,503.55,382.33z M511.129,386.186
			c0.306,0.109,0.221-0.051,0.619,0.025c-0.031,0.367-0.284,0.574-0.485,0.818C510.753,386.813,511.262,386.664,511.129,386.186z
			 M511.455,387.518c0.619-0.045,0.234,0.523,0.686,0.574C511.793,388.352,511.131,388.203,511.455,387.518z M514.342,384.637
			c-0.193,0.338,0.104,0.375-0.023,0.677c-0.377,0.011-0.201-0.321-0.459-0.384c0.168-0.143,0.412-0.17,0.514-0.426
			C514.514,384.563,514.414,384.65,514.342,384.637z M517.07,385.4c0.309,0.111,0.223-0.053,0.621,0.023
			c-0.035,0.369-0.281,0.576-0.486,0.818C516.697,386.029,517.201,385.879,517.07,385.4z M517.471,389.227
			c-0.379-0.124-0.391-0.422-0.613-0.617c0.17-0.282,0.447-0.339,0.695-0.449c0.164,0.129,0.25,0.287,0.408,0.41
			C517.918,389.027,517.652,389.044,517.471,389.227z M526.051,382.768c-0.117-0.083-0.25-0.153-0.307-0.311
			c0.172-0.077,0.15,0.003,0.277-0.079C526.012,382.604,526.254,382.619,526.051,382.768z M532.895,388.586
			c0.102-0.442,0.602-0.233,0.689,0.029C533.486,389.059,532.986,388.848,532.895,388.586z"/>
		<path fill="#F15E3B" d="M534.51,369.174l0.15-2.802l-0.104-1.641c-0.008-0.005-0.018-0.006-0.023-0.011
			c-0.016-0.053-0.006-0.09,0.016-0.119l-0.07-1.112l-2.48,0.323l-2.375-0.6l-2.371,0.194l-2.371-0.133l-2.369,0.707l-0.623-0.009
			c0.016,0.013,0.033,0.023,0.047,0.04c-0.109,0.007-0.059,0.156-0.213,0.129c-0.021-0.087,0.021-0.118,0.039-0.17l-1.619-0.024
			l-2.365-0.644l-2.369-0.146l-2.369,0.145l-2.368,0.621l-2.369-0.356l-2.366-0.231l-2.368-0.157l-2.365,0.339l-2.368-0.291
			l-2.365,0.41l-2.364-0.193l-2.365,0.14l-2.05,0.266l-0.343,2.528l-0.137,2.796l0.206,2.754l2.333,0.277l0.246-0.055
			c-0.251-0.078-0.32-0.27-0.48-0.403c0.089-0.399,0.396-0.445,0.577-0.689c0.305,0.142,0.385,0.431,0.526,0.679
			c-0.086,0.13-0.19,0.229-0.287,0.338l1.667-0.373c-0.249-0.144-0.402-0.419-0.121-0.653c0.048,0.373,0.224-0.247,0.5-0.041
			c-0.019,0.119-0.039,0.238-0.058,0.359c0.186,0.043,0.419,0.049,0.322,0.297c-0.029,0.038-0.068,0.059-0.106,0.08l1.96,0.336
			l2.371-0.147l2.369,0.448l2.369-0.243l2.364-0.484l2.37,0.42l2.369-0.297l2.368-0.112l2.369-0.047l2.367,0.422l2.367-0.087
			l2.365-0.297l2.24-0.081c-0.232-0.526,0.496-1.049,0.982-0.804c0.057,0.389-0.008,0.737-0.268,0.985l1.777,0.563l2.365,0.038
			l2.365-0.794l2.09,0.168L534.51,369.174z M491.448,367.808c0.124-0.312,0.197-0.648,0.525-0.858
			c0.27,0.337,0.075,0.336,0.328,0.569C491.789,367.632,491.898,368.182,491.448,367.808z M492.473,367.517
			c-0.426-0.431,0.149-0.369,0.22-0.91c0.267,0.24,0.242,0.038,0.617,0.283C493.125,367.251,492.784,367.357,492.473,367.517z
			 M493.352,370.471c0.248,0.21,0.502-0.237,0.482,0.076c-0.072-0.005-0.146-0.005-0.142,0.099c0.092,0.046,0.238,0.043,0.223,0.165
			C493.706,370.972,493.204,370.877,493.352,370.471z M494.575,370.002c-0.108,0.054-0.238,0.062-0.356,0.017
			c-0.206-0.327,0.417-0.55,0.395-0.099C494.575,369.923,494.583,369.971,494.575,370.002z M495.303,364.051
			c-0.008-0.094,0.077-0.083,0.053-0.194c-0.023,0-0.045-0.033,0.003-0.04c0.004,0.077,0.071,0.109,0.108,0.165
			C495.389,363.978,495.411,364.083,495.303,364.051z M495.702,370.3c0.056-0.066,0.222-0.07,0.204,0.066
			C495.847,370.433,495.682,370.436,495.702,370.3z M495.689,365.023c0.133,0.021,0.071-0.171,0.245-0.105
			C495.967,365.139,495.764,365.125,495.689,365.023z M496.618,370.871c-0.008-0.029-0.029-0.049-0.076-0.045
			c0.062-0.133-0.102-0.257,0.014-0.316c0.065,0.093,0.209,0.119,0.226,0.25C496.659,370.719,496.72,370.888,496.618,370.871z
			 M497.517,366.902c-0.135,0.039-0.169-0.035-0.241-0.064c-0.008-0.119,0.074-0.16,0.106-0.243
			c0.101,0.014,0.148,0.086,0.207,0.145C497.571,366.8,497.537,366.843,497.517,366.902z M498.619,365.101
			c-0.252,0.042-0.209-0.249-0.063-0.281C498.638,364.896,498.679,364.99,498.619,365.101z M499.27,366.587
			c-0.269-0.298-0.405-0.709-0.374-1.107c0.085-0.058,0.241-0.084,0.204-0.201C500.436,364.664,500.522,366.824,499.27,366.587z
			 M501.742,369.754c-0.019,0.049-0.062,0.086-0.156,0.075c-0.176,0.067-0.369,0.086-0.559,0.062
			c0.062,0.063,0.065,0.206-0.031,0.206c-0.02-0.139-0.003-0.142-0.022-0.215c-0.016-0.002-0.032-0.004-0.048-0.008
			c0.019,0.082-0.028,0.167-0.12,0.094c0.148,0.007,0.054-0.073-0.001-0.125c-0.013-0.004-0.024-0.009-0.036-0.013
			c-0.007,0.035-0.023,0.067-0.039,0.016c0.001-0.013,0.009-0.017,0.015-0.024c-0.536-0.201-0.892-0.769-0.333-1.566
			c0.159,0.083,0.237-0.126,0.342-0.235c0.567,0.056,1.106,0.358,1.449,0.808C502.207,369.292,502.012,369.591,501.742,369.754z
			 M502.746,367.167c-0.16-0.088,0.012-0.117-0.015-0.277c0.094,0.048,0.073-0.01,0.2,0.031
			C502.908,367.037,502.818,367.097,502.746,367.167z M504.494,365.572c0.021,0.134-0.145,0.133-0.2,0.066
			C504.274,365.5,504.438,365.503,504.494,365.572z M504.267,369.644c0.169-0.06,0.108,0.129,0.239,0.108
			C504.432,369.852,504.231,369.865,504.267,369.644z M504.729,368.707c0.035-0.053,0.103-0.084,0.111-0.16
			c0.048,0.005,0.023,0.037,0.004,0.037c-0.029,0.112,0.061,0.098,0.048,0.195C504.787,368.813,504.807,368.707,504.729,368.707z
			 M505.438,367.656c-0.077-0.07-0.168-0.133-0.186-0.248c0.125-0.038,0.104,0.018,0.198-0.028
			C505.426,367.539,505.593,367.57,505.438,367.656z M505.584,365.191c-0.022-0.45,0.604-0.227,0.394,0.099
			c-0.116,0.045-0.25,0.035-0.358-0.022C505.613,365.242,505.624,365.197,505.584,365.191z M506.184,369.373
			c-0.202-0.243-0.451-0.451-0.481-0.814c0.396-0.079,0.309,0.084,0.62-0.025C506.184,369.01,506.697,369.158,506.184,369.373z
			 M507.964,367.462c-0.114-0.177-0.271-0.281-0.386-0.459c0.139-0.248,0.219-0.533,0.529-0.678c0.179,0.247,0.487,0.293,0.569,0.69
			C508.48,367.187,508.44,367.457,507.964,367.462z M518.346,367.104c-0.824,0.155-0.307-0.452-0.873-0.948
			c0.48-0.122,0.234-0.247,0.805-0.486C518.539,366.158,518.398,366.632,518.346,367.104z M522.434,365.422
			c0.189,0.008,0.068-0.248,0.32-0.192C522.842,365.535,522.559,365.551,522.434,365.422z M524.074,366.617
			c0.242-0.227,0.447-0.502,0.83-0.556c0.102,0.416-0.072,0.332,0.061,0.651C524.453,366.598,524.324,367.14,524.074,366.617z
			 M526.531,364.996c-0.346,0.108-0.336-0.305-0.141-0.375C526.521,364.709,526.592,364.832,526.531,364.996z M530.457,371.387
			c0.258-0.026-0.035-0.167-0.076-0.215c0.008,0.055-0.012,0.139-0.051,0.055c0-0.059,0.041-0.066,0.049-0.114
			C530.709,371.042,530.699,371.534,530.457,371.387z M530.746,371.534c-0.053-0.216-0.014-0.204-0.08-0.331
			C530.826,371.182,530.918,371.51,530.746,371.534z M530.9,369.175c0.133,0.069,0.197-0.16,0.223-0.018
			c-0.035,0.006-0.068,0.014-0.053,0.059c0.047,0.008,0.109-0.006,0.117,0.047C531.107,369.359,530.875,369.371,530.9,369.175z
			 M531.195,369.375c0.059,0.163,0.076-0.133,0.217-0.072c0.004,0.057,0.008,0.113,0.014,0.168c0.086-0.002,0.189-0.023,0.172,0.099
			C531.502,369.783,531.006,369.625,531.195,369.375z M531.898,365.193c0.174,0.043,0.328,0.159,0.414,0.32
			c-0.018,0.042-0.068,0.091-0.023,0.125C531.943,366.207,531.365,365.422,531.898,365.193z M532.039,370.967
			c0.09-0.19,0.291-0.044,0.303,0.081C532.252,371.234,532.051,371.091,532.039,370.967z M532.164,368.878
			c-0.123-0.173-0.127-0.408-0.365-0.531c0.072-0.131,0.145-0.025,0.123,0.04c0.311,0.221,0.375-0.062,0.652,0.088
			C532.553,368.838,532.252,368.639,532.164,368.878z"/>
	</g>
</g>
</svg>
