<?xml version="1.0" encoding="utf-8"?>
<!-- Generator: Adobe Illustrator 15.0.0, SVG Export Plug-In . SVG Version: 6.00 Build 0)  -->
<!DOCTYPE svg PUBLIC "-//W3C//DTD SVG 1.1//EN" "http://www.w3.org/Graphics/SVG/1.1/DTD/svg11.dtd">
<svg version="1.1" id="Layer_1" xmlns="http://www.w3.org/2000/svg" xmlns:xlink="http://www.w3.org/1999/xlink" x="0px" y="0px"
	 width="1024px" height="768px" viewBox="0 0 1024 768" enable-background="new 0 0 1024 768" xml:space="preserve">
<path fill="#F08529" d="M512,339.784c-12.869,0-23.957,7.5-29.223,18.352c0.922-0.09,2.021,1.101,0.604,1.92
	c-0.606-0.261-0.877-0.699-0.935-1.229c-1.874,4.103-2.945,8.652-2.945,13.456c0,7.77,2.737,14.896,7.284,20.488
	c0.105-0.051,0.245-0.051,0.465,0.062c0.006,0.175-0.02,0.308-0.059,0.419c5.961,7.047,14.855,11.532,24.809,11.532
	c17.947,0,32.498-14.552,32.498-32.501C544.498,354.336,529.947,339.784,512,339.784z M482.022,376.635
	c-0.315-0.232,0.061-0.248,0.048-0.597c0.193,0.123,0.158,0.004,0.422,0.12C482.406,376.399,482.203,376.506,482.022,376.635z
	 M484.14,362.184c-0.097-0.021-0.156,0.006-0.175,0.07c-0.229,0.005-0.045-0.336-0.32-0.282c0.013-0.051,0.041-0.085,0.072-0.125
	c-0.063-0.029-0.136-0.077-0.221-0.148c0.192-0.472,0.303-0.993,0.812-1.322c0.411,0.52,0.114,0.513,0.511,0.876
	c-0.285,0.065-0.444,0.216-0.564,0.354C484.27,361.753,484.061,361.94,484.14,362.184z M484.732,388.46
	c-0.003-0.459,0.4-0.344,0.33-0.892c-0.102-0.014-0.187-0.187,0.027-0.184c0,0.385,0.293,0.547,0.437,0.824
	C485.164,388.155,485.212,388.676,484.732,388.46z M530.889,357.066c-0.182,0.067-0.379,0.057-0.551-0.026
	c-0.012-0.05,0.004-0.123-0.058-0.125C530.25,356.22,531.205,356.562,530.889,357.066z M530.08,360.274
	c-0.039,0.244,0.217,0.285-0.023,0.418c-0.114-0.106-0.249-0.201-0.283-0.375C529.967,360.255,529.93,360.341,530.08,360.274z
	 M529.14,347.541c0.073,0.015,0.041,0.067,0.003,0.067c-0.035,0.172,0.094,0.153,0.079,0.295c-0.161,0.052-0.13-0.109-0.247-0.104
	C529.025,347.714,529.129,347.663,529.14,347.541z M527.819,353.079c0.028,0.662-0.753,0.562-0.985,0.226
	C526.812,352.645,527.588,352.743,527.819,353.079z M527.324,358.302c-0.07-0.003-0.105,0.028-0.119,0.071
	c-0.158,0.027-0.062-0.233-0.249-0.172c0.025-0.198,0.244-0.24,0.343-0.382C527.476,357.91,527.229,358.1,527.324,358.302z
	 M527.14,368.281c0.146,0.064,0.111-0.019,0.312,0.04c-0.038,0.183-0.172,0.273-0.284,0.381
	C526.921,368.564,527.182,368.52,527.14,368.281z M526.032,351.807c0.048,0.132,0.178,0.193,0.162,0.375
	c-0.111,0.044-0.165,0.16-0.372,0.102c-0.028-0.093-0.079-0.158-0.109-0.251C525.807,351.94,525.879,351.83,526.032,351.807z
	 M524.232,349.08c0.22,0.053,0.289,0.503-0.102,0.435C524.043,349.347,524.103,349.202,524.232,349.08z M524.277,362.13
	c-0.003,0.054-0.006,0.116-0.018,0.182c0.097,0.009,0.218,0,0.18,0.128c-0.137,0.215-0.647-0.021-0.41-0.267
	C524.071,362.356,524.128,362.036,524.277,362.13z M523.982,361.931c-0.038,0.001-0.076,0.002-0.065,0.051
	c0.043,0.015,0.119,0.011,0.119,0.072c-0.099,0.086-0.349,0.069-0.299-0.141C523.871,362.008,523.973,361.772,523.982,361.931z
	 M517.822,352.265c-0.042,0.243,0.219,0.286-0.023,0.425c-0.113-0.111-0.246-0.204-0.281-0.38
	C517.708,352.248,517.676,352.338,517.822,352.265z M516.959,363.625c0.129,0.047,0.215,0.289,0.003,0.327
	C516.838,363.9,516.752,363.659,516.959,363.625z M515.422,350.341c-0.082,0.102-0.34,0.105-0.308-0.105
	C515.2,350.133,515.451,350.126,515.422,350.341z M514.585,354.803c0.013,0.119,0.114,0.166,0.171,0.25
	c-0.121-0.002-0.092,0.158-0.25,0.109c-0.02-0.151,0.117-0.131,0.07-0.302C514.549,354.863,514.51,354.812,514.585,354.803z
	 M513.442,349.655c-0.062,0.007-0.045,0.076-0.054,0.12c-0.166,0.086-0.373,0.103-0.553,0.032
	C512.516,349.307,513.474,348.966,513.442,349.655z M512.309,354.783c0.477,0.165,0.343-0.081,0.953,0.038
	c-0.049,0.561-0.429,0.881-0.74,1.252C511.732,355.743,512.519,355.517,512.309,354.783z M499.949,379.297
	c0.16,0.393,0.528,0.436,0.788,0.654c-0.396,0.099-0.123,0.61-0.704,0.593c-0.193-0.462,0.259-0.518-0.035-1.043
	C499.885,379.524,499.735,379.391,499.949,379.297z M495.812,380.677c-0.203,0.734,0.57,0.964-0.21,1.29
	c-0.311-0.37-0.692-0.689-0.749-1.254C495.47,380.595,495.333,380.846,495.812,380.677z M488.154,372.321
	c0.253,0.473,0.907,0.649,0.929,1.285c-0.567-0.252-0.345,0.569-0.821,0.438c-0.021-0.147-0.12-0.237-0.343-0.244
	C488.284,373.199,487.588,372.537,488.154,372.321z M488.031,376.332c-0.654-0.659,0.234-0.57,0.336-1.398
	c0.41,0.373,0.38,0.06,0.948,0.435C489.036,375.917,488.508,376.082,488.031,376.332z M490.914,363.863
	c-0.189-0.043-0.211,0.208-0.294,0.355c-0.62,0.111-1.288-0.051-1.796-0.432C488.266,361.846,491.687,361.662,490.914,363.863z
	 M493.958,350.389c0.877,0.366,0.496,0.561,1.232,0.745c-0.87,0.761-0.073,1.695-1.337,1.46
	C493.771,351.867,493.555,351.137,493.958,350.389z M493.854,389.664c-0.003-0.459,0.402-0.346,0.334-0.892
	c-0.108-0.012-0.188-0.183,0.025-0.182c-0.004,0.385,0.295,0.545,0.438,0.825C494.285,389.356,494.335,389.88,493.854,389.664z
	 M494.444,385.542c0.244-0.188,0.374-0.43,0.622-0.631c0.383,0.173,0.812,0.261,1.072,0.69c-0.346,0.302-0.364,0.76-0.942,0.948
	C494.917,386.271,494.508,386.245,494.444,385.542z M495.174,394.413c0.613,0.173,0.423-0.765,1.197-0.377
	C496.424,395.095,495.488,394.934,495.174,394.413z M496.686,367.983c-0.378,0.246-1.207,0.023-0.905-0.633
	C496.155,367.096,496.986,367.323,496.686,367.983z M499.599,393.666c0.351,0.406,0.485,0.854,0.161,1.348
	C498.551,395.095,498.906,393.752,499.599,393.666z M499.68,398.035c0.039-0.57,0.322-1.127,0.772-1.486
	c0.149,0.025,0.327,0.166,0.415,0.007C502.846,397.333,500.678,399.58,499.68,398.035z M502.654,384.978
	c-0.11-0.552,0.492-1.237,0.667-0.654C502.842,384.188,503.334,385.389,502.654,384.978z M503.379,384.807
	c0.688-0.078,0.102-0.949,1.053-0.881C504.926,384.979,503.908,385.203,503.379,384.807z M504.724,383.179
	c-0.308-0.378-0.698-0.694-0.746-1.26c0.609-0.117,0.479,0.131,0.948-0.037C504.724,382.618,505.506,382.845,504.724,383.179z
	 M507.066,368.425c0.57-0.378,0.535-0.073,0.943-0.442c0.103,0.835,0.992,0.74,0.339,1.402
	C507.871,369.142,507.349,368.975,507.066,368.425z M508.295,370.932c1.135,0.033,0.723,1.624,0.037,0.953
	c0.86,0.128,0.017-0.573-0.066-0.762c-0.023,0.196-0.158,0.453-0.213,0.153C508.077,371.088,508.237,371.078,508.295,370.932z
	 M508.881,396.223c-1.21,0.076-0.854-1.268-0.162-1.35C509.075,395.276,509.205,395.725,508.881,396.223z M509.167,372.585
	c-0.013-0.733,0.104-0.655-0.011-1.136C509.699,371.514,509.745,372.65,509.167,372.585z M509.789,353.143
	c-0.73-0.011-0.79-0.425-1.098-0.687c0.128-0.608,0.602-0.685,0.876-1.058c0.474,0.221,0.603,0.659,0.812,1.038
	C510.205,352.706,509.961,352.869,509.789,353.143z M511.506,365.023c0.385,0.317,0.766-0.366,0.74,0.109
	c-0.115-0.005-0.223-0.008-0.217,0.157c0.143,0.066,0.362,0.066,0.346,0.245C512.051,365.783,511.277,365.635,511.506,365.023z
	 M513.489,366.847c-0.491,0.63-1.983-0.281-1.177-0.941c0.072,0.567,0.343-0.389,0.771-0.071c-0.035,0.186-0.065,0.37-0.093,0.552
	C513.283,366.456,513.635,366.469,513.489,366.847z M513.648,353.013c0.143,0.069,0.111-0.011,0.305,0.043
	c-0.031,0.18-0.172,0.276-0.289,0.382C513.424,353.305,513.687,353.258,513.648,353.013z M513.764,402.205
	c-0.017-0.149,0.119-0.123,0.074-0.299c-0.024-0.004-0.065-0.051,0.008-0.062c0.012,0.126,0.113,0.17,0.168,0.253
	C513.896,402.098,513.924,402.261,513.764,402.205z M514.356,403.699c0.206,0.035,0.106-0.266,0.368-0.161
	C514.779,403.883,514.474,403.854,514.356,403.699z M514.963,364.019c-0.175,0.074-0.268-0.034-0.406-0.038
	c-0.022-0.151,0.06-0.26,0.119-0.371c0.093-0.004,0.172,0.029,0.27,0.02C515.061,363.81,514.979,363.896,514.963,364.019z
	 M515.096,356.653c0.203,0.034,0.107-0.255,0.371-0.164C515.518,356.831,515.213,356.809,515.096,356.653z M516.565,375.963
	c-0.118-0.115-0.254-0.201-0.289-0.381c0.196-0.064,0.159,0.024,0.308-0.048C516.545,375.776,516.803,375.827,516.565,375.963z
	 M516.515,365.631c-0.011-0.05-0.042-0.072-0.113-0.072c0.094-0.204-0.153-0.396,0.021-0.478c0.102,0.14,0.322,0.176,0.347,0.375
	C516.578,365.402,516.674,365.657,516.515,365.631z M517.063,399.736c-0.116-0.114-0.253-0.197-0.29-0.382
	c0.198-0.06,0.166,0.027,0.305-0.049C517.038,399.553,517.301,399.602,517.063,399.736z M518.061,380.885
	c-1.203,0.594-1.41-0.923-0.736-1.3C517.854,379.848,518.174,380.249,518.061,380.885z M518.854,403.818
	c-0.391,0.064-0.32-0.382-0.1-0.436C518.881,403.506,518.939,403.645,518.854,403.818z M520.243,383.306
	c-0.051-0.282-0.196-0.505-0.252-0.796c0.312-0.24,0.573-0.562,1.042-0.587c0.102,0.416,0.473,0.635,0.375,1.195
	C521.053,383.229,520.859,383.556,520.243,383.306z M521.03,373.009c-0.003-0.188,0.07-0.378,0.2-0.506
	c0.049,0,0.111,0.038,0.14-0.015C522.037,372.671,521.408,373.471,521.03,373.009z M521.553,368.678
	c-0.053-0.17,0.112-0.419,0.191-0.232C521.586,368.418,521.786,368.792,521.553,368.678z M520.869,356.761
	c0.009,0.013,0.025,0.02,0.025,0.038c-0.024,0.079-0.048,0.028-0.059-0.025c-0.019,0.007-0.037,0.014-0.057,0.021
	c-0.082,0.08-0.229,0.205,0,0.194c-0.143,0.112-0.215-0.021-0.188-0.146c-0.022,0.004-0.047,0.006-0.072,0.011
	c-0.032,0.114-0.003,0.116-0.035,0.331c-0.15,0.001-0.143-0.225-0.041-0.318c-0.292,0.036-0.59,0.008-0.86-0.096
	c-0.146,0.021-0.212-0.038-0.241-0.115c-0.416-0.25-0.714-0.708-0.707-1.418c0.526-0.692,1.354-1.157,2.225-1.241
	c0.158,0.166,0.279,0.484,0.523,0.36C522.243,355.583,521.693,356.454,520.869,356.761z M521.979,361.183
	c0.075-0.182,0.249,0.064,0.192,0.237C521.941,361.533,522.139,361.159,521.979,361.183z M522.357,365.232
	c0.025,0.048,0.085,0.011,0.133,0.009c0.137,0.128,0.206,0.32,0.203,0.511C522.316,366.218,521.693,365.417,522.357,365.232z
	 M523.395,349.788c-0.055,0.184,0.182,0.221,0.312,0.31c0.05,0.612-0.159,1.24-0.571,1.701
	C521.21,352.159,521.344,348.847,523.395,349.788z M523.236,364.445c-0.023-0.241,0.013-0.216-0.041-0.366
	C523.375,364.082,523.426,364.445,523.236,364.445z M522.83,364.061c0.005-0.067,0.053-0.072,0.066-0.119
	c0.371-0.033,0.292,0.5,0.041,0.299c0.289,0.014-0.009-0.181-0.044-0.241C522.894,364.064,522.855,364.155,522.83,364.061z
	 M523.097,390.005c0.104-0.204,0.051-0.406-0.227-0.592c0.966-0.458,0.64-1.87,1.537-1.667c-0.073,0.803,0.603,1.576,0.099,2.399
	C524.004,389.345,523.588,390.564,523.097,390.005z M523.846,395.223c0.003-0.368-0.251-0.658,0.184-1.164
	c0.289,0.043,0.543-0.029,0.835,0.014c0.136,0.375,0.358,0.713,0.231,1.171C524.674,395.212,524.351,395.498,523.846,395.223z
	 M525.087,399.327c-0.028-0.097-0.083-0.157-0.111-0.251c0.092-0.086,0.168-0.203,0.317-0.229c0.049,0.136,0.181,0.196,0.158,0.38
	C525.347,399.273,525.293,399.385,525.087,399.327z M526.403,372.329c0.67,0.375,0.463,1.891-0.729,1.299
	C525.553,372.996,525.87,372.591,526.403,372.329z M526.759,370.881c0.213,0.039,0.124,0.283,0,0.331
	C526.549,371.177,526.635,370.931,526.759,370.881z M526.188,400.941c-0.117-0.113-0.25-0.201-0.292-0.381
	c0.196-0.062,0.162,0.025,0.312-0.047C526.166,400.763,526.424,400.806,526.188,400.941z M526.099,400.346
	c-0.025-0.655,0.756-0.555,0.981-0.223C527.101,400.785,526.327,400.683,526.099,400.346z M527.769,371.3
	c-0.477-0.241-0.997-0.406-1.286-0.959c0.575-0.37,0.547-0.064,0.949-0.444C527.537,370.736,528.422,370.636,527.769,371.3z
	 M528.299,357.6c-0.029-0.212,0.227-0.207,0.313-0.103C528.641,357.708,528.389,357.702,528.299,357.6z M528.256,349.234
	c0.265-0.1,0.173,0.195,0.371,0.164C528.518,349.552,528.206,349.573,528.256,349.234z M528.758,371.275
	c-0.009-0.125-0.098-0.208,0.026-0.381c0.092,0,0.171-0.029,0.267-0.026c0.054,0.111,0.143,0.22,0.116,0.368
	C529.028,371.243,528.929,371.346,528.758,371.275z M529.367,384.516c-0.051-0.29-0.2-0.512-0.253-0.798
	c0.31-0.247,0.567-0.568,1.036-0.59c0.105,0.414,0.478,0.633,0.379,1.195C530.178,384.437,529.979,384.766,529.367,384.516z
	 M531.205,363.334c-0.309-0.374-0.691-0.695-0.742-1.257c0.609-0.115,0.477,0.129,0.949-0.037
	C531.205,362.777,531.986,363.003,531.205,363.334z M530.24,359.589c-0.152-0.383,0.206-0.393,0.492-0.457
	c-0.025-0.187-0.061-0.371-0.086-0.553c0.422-0.317,0.688,0.635,0.766,0.065C532.213,359.312,530.726,360.221,530.24,359.589z
	 M531.354,358.279c-0.025-0.186,0.2-0.182,0.34-0.251c0.008-0.162-0.104-0.162-0.216-0.153c-0.032-0.479,0.359,0.207,0.742-0.117
	C532.446,358.38,531.674,358.528,531.354,358.279z M532.283,352.265c0.531-0.347,0.557-0.136,0.871-0.38
	c-0.016-0.008-0.01-0.033-0.031-0.038c0.11-2.12,2.936-0.774,1.779,0.661c-0.12,0.031-0.247,0.009-0.371,0.018
	c0.333,0.315,0.451,0.74,0.613,1.147c-0.696,0.572-0.529-0.271-1.314-0.447c0.33-0.306,0.19-0.365,0.383-0.687
	c-0.276-0.022-0.539-0.102-0.785-0.228c0.26,0.347,0.625,0.418,0.141,0.914C533.092,352.98,532.566,352.819,532.283,352.265z
	 M534.557,365.326c-0.577,0.068-0.53-1.071,0.007-1.129C534.455,364.679,534.569,364.596,534.557,365.326z M533.936,360.394
	c-0.176-0.269-0.416-0.432-0.591-0.697c0.219-0.381,0.339-0.822,0.809-1.042c0.276,0.377,0.746,0.449,0.883,1.062
	C534.729,359.978,534.665,360.387,533.936,360.394z M535.461,363.863c-0.085,0.188-0.93,0.891-0.064,0.764
	c-0.688,0.678-1.105-0.921,0.031-0.954c0.062,0.15,0.215,0.157,0.246,0.345C535.623,364.315,535.483,364.064,535.461,363.863z
	 M535.376,362.126c-0.651-0.666,0.231-0.567,0.333-1.399c0.412,0.372,0.381,0.065,0.952,0.44
	C536.374,361.718,535.855,361.881,535.376,362.126z"/>
<path fill="#FFFFFF" d="M502.728,365.556c0,0-0.608,1.78-0.093,4.463c0.514,2.686,1.419,2.836,1.419,2.836l-0.588,3.411
	c0,0-3.979-0.392-4.887-5.161c-2.447-12.852,10.406-17.116,16.606-15.71c10.992,2.486,11.172,10.605,10.135,16.798
	c-1.205,4.907-4.434,7.358-6.729,8.442c-2.291,1.091-4.373,0.7-6.242,0.093c-1.87-0.601-2.508-1.838-2.508-1.838
	s-0.936,3.729-1.583,6.206c-0.645,2.478-3.12,6.039-3.783,5.982c-0.66-0.062-0.774-5.8-0.604-7.061
	c0.292-2.183,2.838-11.464,2.838-11.464s0.222-0.41-0.465-3.053c-0.713-2.771,0.871-6.097,3.416-6.36
	c2.93-0.301,3.29,2.263,3.231,3.771c-0.061,1.51-1.51,5.008-1.688,6.608c-0.183,1.596,0.27,3.903,2.983,4.013
	c2.23,0.089,5.521-2.189,6.658-8.708c0.818-4.663-1.859-10.275-8.918-10.026C504.87,359.048,502.728,365.556,502.728,365.556z"/>
</svg>
